<svg xmlns="http://www.w3.org/2000/svg" viewBox="0 0 199.88 199.88"><defs><style>.cls-1{fill:#d4b4ac;}</style></defs><g id="Icon9"><path class="cls-1" d="M199.88,99.94A99.94,99.94,0,1,1,99.94,0,99.93,99.93,0,0,1,199.88,99.94ZM41.12,74.16,39,124.37C38.73,140.81,57.26,142,57.26,142h87.87c22.11-2.1,17.33-24.81,17.33-24.81l-3.89-44.53c-.89-15.54-21.81-17.93-21.81-17.93H62.34C43.21,54.74,41.12,74.16,41.12,74.16ZM75.8,82.07c-2.42,1.59.25,9.53.25,9.53.76,5.55.13,7.14.13,7.14C73.89,104.29,74.4,108,74.4,108c2.67,5.68,8.26,1.32,8.26,1.32l13.47-8.73a5.8,5.8,0,0,0,8.54.13l12.42,7.41c5.34,3.83,7.37,2.51,7.37,2.51,4.2,1.19,2.93-6.88,2.93-6.88-2.42-6.08-1.91-8.48-1.91-8.48.26-3.45,1.91-11.22,1.91-11.22-.64-6.75-7.12-2.25-7.12-2.25L105.53,90C100.19,85.25,96,90,96,90l-14.23-8.2C79.78,80.66,78.21,80.49,75.8,82.07Z"/></g></svg>