<svg xmlns="http://www.w3.org/2000/svg" viewBox="0 0 196 199.19"><defs><style>.cls-1{fill:#f5b1c2;}</style></defs><g id="Icon7"><path class="cls-1" d="M196,99.6c0,55-43.88,99.59-98,99.59S0,154.6,0,99.6,43.88,0,98,0,196,44.59,196,99.6ZM80.75,44l17.61-.07c1.81-.08,1.29.75,1.29.75V48.3c.3,1.21-1.29.83-1.29.83l-17.61-.07v4.76H98.36A1,1,0,0,1,99.72,55v3.48c0,.83-1.21.53-1.21.53H80.75v4.76L98,64c2-.45,1.57,1.13,1.57,1.13l-.08,3.41c.08.9-1.13.68-1.13.68l-17.61.07v4.69H98.36c1.59,0,1.29,1.36,1.29,1.36v2.95C100,79.45,98,79.35,98,79.35l-17.25-.14V84L98,84.11c1.8-.15,1.37,1.73,1.37,1.73v3.31c.15,1.73-1.37,1.3-1.37,1.3L80.75,90.3v4.47H98c2.09,0,1.8,1,1.8,1v3.37c-.14,1.5-1.8,1.38-1.8,1.38l-17.22-.14c-.44,4.18,3.61,6.77,3.61,6.77l8.79.14c5.9.72,6.62,7.06,6.62,7.06l-.14,42.22c6.63,10.37,13.11,0,13.11,0l-.29-112.53a7.23,7.23,0,0,0-4.18-6.93l-20.17,0c-7.78-.44-7.34,6.19-7.34,6.19"/></g></svg>