<?xml version="1.0" encoding="utf-8"?>
<!-- Generator: Adobe Illustrator 25.1.0, SVG Export Plug-In . SVG Version: 6.00 Build 0)  -->
<svg version="1.1" id="Layer_1" xmlns="http://www.w3.org/2000/svg" xmlns:xlink="http://www.w3.org/1999/xlink" x="0px" y="0px"
	 viewBox="0 0 246.81 241.43" style="enable-background:new 0 0 246.81 241.43;" xml:space="preserve">
	 <defs>
	 <script>
        let badge = document.querySelector ("#Lotion");
        function loMyId ()
        {
          console.log(this.id);
        }
        badge.addEventlistener ("click", () => { console.log (this); });

        lotio
    
  </script>
</defs>
<style type="text/css">
	.st0{fill:#E6ECA0;}
</style>
<path class="st0" d="M246.81,120.72c0,66.67-55.25,120.72-123.41,120.72S0,187.38,0,120.72S55.25,0,123.41,0
	S246.81,54.05,246.81,120.72z M134.14,59.56h-23.18v1.15h23.18V59.56z M131.4,43.6h-17.82v15.97h17.82V43.6z M135.05,60.14h-25.51
	v5.45h25.51V60.14z M122.55,48.38c-2.24,0-4.05,1.71-4.05,3.82c0,2.11,1.81,3.82,4.05,3.82s4.05-1.71,4.05-3.82
	C126.6,50.09,124.78,48.38,122.55,48.38z M109.54,65.59c0,0-32.39,9.04-29.69,42.4c0,0,7.48,59.65,11.43,85.35h62.74l10.8-85.35
	c0,0,5.07-31.04-29.77-42.4H109.54z M118.85,76.42c0,0-29.7,1.63-25.87,37.1l7.66,68.4h42.53l9.58-71.48c0,0,5.83-31.67-27.93-34.02
	H118.85z M124.83,65.59h-4.09v110.58h4.09V65.59z"/>
</svg>
