<svg xmlns="http://www.w3.org/2000/svg" viewBox="0 0 198.23 198.23"><defs><style>.cls-1{fill:#fff9b0;}</style></defs><g id="Icon10"><path class="cls-1" d="M198.23,99.11A99.12,99.12,0,1,1,99.11,0,99.12,99.12,0,0,1,198.23,99.11ZM90.67,86.28H65.48v6.25H90.67Zm-18,73.82H83.46c5.94-31.51,7.21-67.57,7.21-67.57H65.48A387.84,387.84,0,0,0,72.62,160.1Zm59.19-52.25H106.42V113h25.39ZM113.56,160.1h10.88c6.24-13.66,7.37-47.15,7.37-47.15H106.42C107.13,143.65,113.56,160.1,113.56,160.1Zm7-121.58h-2.45v69.33h2.45Zm0,0V36.75c-1.38-2.13-2.45,0-2.45,0v1.77ZM121,58.07h-3.41v.79H121Zm.4-1.29h-4.26v.75h4.26Zm.55-1.14h-5.25v.6H122Zm.55-1.33h-6.27V55h6.27Zm.53-1.24h-7.64v.74h7.64Zm.46-1.53H115v.87h8.56Zm0-1.55H115v.87h8.56Zm0-1.42H115v.81h8.56Zm.1-1.74H115v1h8.66Zm0-1.6H115v.88h8.66ZM123.38,44H115.2v.74h8.18Zm-.31-1.17h-7.4v.69h7.4Zm-.5-1h-6.35v.54h6.35Zm-.79-.86h-4.94v.55h4.94Zm-.4-.89h-3.89v.53h3.89Zm-.43-1h-3.17v.48H121Z"/></g></svg>