<svg xmlns="http://www.w3.org/2000/svg" viewBox="0 0 194.89 200.51"><defs><style>.cls-1{fill:#ccc4ff;}</style></defs><g id="Icon3"><path class="cls-1" d="M194.89,100.26c0,55.37-43.63,100.25-97.45,100.25S0,155.63,0,100.26,43.63,0,97.44,0,194.89,44.89,194.89,100.26ZM134.16,65.68c-2.48-9.39-14.91-9.39-14.91-9.39-12.56,0-15.18-.8-15.18-.8-6.21-1.91-4.28-10.1-4.28-10.1-10.35-1.1-19.18,8.14-19.18,8.14A43,43,0,0,1,68.05,57c-9.52,1.8-9.39,8.7-9.39,8.7ZM49.56,79.19s-11,.4-13.2,9.36c0,0-1.93,7.75,0,14.75,0,0,5.9,21.93,5.9,22.16,0,0,1.48,10.61,8.06,16.91,0,0,8.68,9.93,21.73,12.82l51.24.11s16.62-4.54,21.84-15.26a71.39,71.39,0,0,0,7.43-20.71l5.05-17.93s2.27-9-.62-13.1c0,0-3.66-8.17-12.89-9.11ZM144.1,65.68H49.56V79.89H144.1Z"/></g></svg>