<svg xmlns="http://www.w3.org/2000/svg" viewBox="0 0 201.08 199.39"><defs><style>.cls-1{fill:#c6fffd;}</style></defs><g id="Icon5"><path class="cls-1" d="M201.08,99.69c0,55.06-45,99.7-100.54,99.7S0,154.75,0,99.69,45,0,100.54,0,201.08,44.63,201.08,99.69ZM65.2,146.1c-1,10.56,9.51,15.32,9.51,15.32h49.23c12.15-3.17,11-16.64,11-16.64l-5.28-44.21a15.53,15.53,0,0,0-12.81-13.33H80.12c-9.37.92-10.56,15.17-10.56,15.17Zm7.53-.26c-.66,7.26,7.39,8.32,7.39,8.32h39.07c11-1.06,7.52-11,7.52-11L122,104.26c-.26-8.18-5.15-8.31-5.15-8.31H83.16c-6.87.39-6.6,12.67-6.6,12.67ZM103.35,87h-7V117.2h7Zm-18.52.27h29.89l0-45.28c.4-4.35-4.49-5-4.49-5H89.36c-5.28.79-4.49,7-4.49,7Zm11.52,32L91,145.36h18.25l-5.93-25.5V117.2h-7Z"/></g></svg>