<svg xmlns="http://www.w3.org/2000/svg" viewBox="0 0 198.32 198.32"><defs><style>.cls-1{fill:#ba8c7f;}</style></defs><g id="Icon6"><path class="cls-1" d="M198.32,99.16A99.16,99.16,0,1,1,99.16,0,99.17,99.17,0,0,1,198.32,99.16ZM118.82,36.3,100.5,83.68l-1.81,2.9L105,94.74,123.53,53S129.88,39.69,118.82,36.3ZM76.14,52.39l16.5,37.34c1.7,10.08,6.52,9.43,6.52,9.43l12.21,35.5c9.43,33.14,22.14,26.39,22.14,26.39C147.26,153,138,136.16,138,136.16c-9-17.94-21.74-6.68-21.74-6.68L103.91,97.65c3.4-6.16-3.54-11.66-3.54-11.66L80.07,36.74C71.29,42.31,76.14,52.39,76.14,52.39Zm18.61,44s-10.68,30.79-13,33.2c0,0-9.74-12.05-19.9,6.17,0,0-7,15.19,0,22.73,0,0,10.68,7.33,18.75-4.82L99.16,99.16ZM65,140.79c-2.62,6.63-1.67,13.22,2.12,14.72s9-2.66,11.61-9.29S80.39,133,76.6,131.51,67.61,134.16,65,140.79Zm57.82-9.45c-3.86,1.41-5,8-2.52,14.75s7.6,11,11.46,9.63,5-8,2.52-14.75S126.66,129.92,122.8,131.34ZM99.16,90.76a2.57,2.57,0,1,0,2.56,2.56A2.56,2.56,0,0,0,99.16,90.76Z"/></g></svg>