<svg xmlns="http://www.w3.org/2000/svg" viewBox="0 0 199.35 197.62"><defs><style>.cls-1{fill:#c4b7dd;opacity:0.72;}</style></defs><g id="Icon8"><path class="cls-1" d="M199.35,98.81c0,54.57-44.63,98.81-99.67,98.81S0,153.38,0,98.81,44.63,0,99.68,0,199.35,44.24,199.35,98.81Zm-36.61,7.88H36.5v31H162.74Zm-42.12-33c-7.4,0-13.4,5.19-13.4,11.6s6,11.59,13.4,11.59S134,91.64,134,85.24,128,73.64,120.62,73.64ZM99.68,75.83c-4.62,0-8.37,3.33-8.37,7.44s3.75,7.44,8.37,7.44S108,87.38,108,83.27,104.29,75.83,99.68,75.83Zm23.67,23c0-7.5-7.7-13.57-17.19-13.57S89,91.31,89,98.81s7.69,13.57,17.19,13.57S123.35,106.3,123.35,98.81ZM73.61,70.13A18.28,18.28,0,1,0,91.89,88.41,18.27,18.27,0,0,0,73.61,70.13ZM134,86.9a7.47,7.47,0,1,0,8,7.45A7.75,7.75,0,0,0,134,86.9Zm28.49,7.45H36.5v12.5h126Z"/></g></svg>